<svg width="200" height="200" viewBox="0 0 200 200" fill="none" xmlns="http://www.w3.org/2000/svg">
<path d="M165.419 63.132C162.365 56.0398 158.017 49.8871 152.375 44.6753C146.732 39.4636 139.94 35.3824 132.001 32.4288C124.06 29.4768 115.174 28 105.344 28C98.2456 28 91.4825 28.8835 85.0557 30.649C78.6275 32.4159 72.6654 34.9198 67.168 38.1621C61.6706 41.4058 56.6827 45.3275 52.2029 49.9302C47.723 54.5329 43.9128 59.6728 40.7723 65.3457C37.6303 71.0214 35.2158 77.1727 33.53 83.8009C31.8429 90.4334 31 97.3661 31 104.603C31 115.143 32.7305 124.58 36.1914 132.918C39.6509 141.255 44.6561 148.32 51.1998 154.109C57.7435 159.899 65.7132 164.327 75.1088 167.397C84.5029 170.464 95.1628 172 107.088 172C113.895 172 120.134 171.491 125.805 170.48C131.477 169.467 137.046 167.801 142.515 165.487L138.065 154.805C133.702 156.656 128.96 158.061 123.842 159.017C118.723 159.972 113.079 160.45 106.914 160.45C96.9077 160.45 87.9639 159.205 80.0823 156.715C72.1992 154.224 65.5241 150.591 60.0571 145.815C54.5886 141.038 50.4002 135.192 47.4921 128.272C44.5825 121.353 43.1291 113.464 43.1291 104.605C43.1291 95.5158 44.6691 87.0331 47.7533 79.158C50.8361 71.2843 55.1269 64.4234 60.6243 58.5738C66.1216 52.7271 72.6798 48.123 80.3002 44.7644C87.9206 41.4072 96.2684 39.7265 105.344 39.7265C112.905 39.7265 119.9 40.8987 126.329 43.2431C132.755 45.5875 138.283 48.8312 142.907 52.9699C147.531 57.11 151.154 62.0172 153.772 67.6915C156.39 73.3673 157.699 79.5617 157.699 86.2775C157.699 92.7045 156.927 98.4794 155.386 103.604C153.844 108.728 151.764 113.057 149.148 116.588C146.53 120.121 143.476 122.829 139.986 124.709C136.496 126.591 132.802 127.532 128.905 127.532C127.216 127.532 125.995 127.069 125.24 126.143C124.484 125.218 124.106 123.915 124.106 122.234C124.106 120.902 124.294 119.296 124.673 117.414C125.051 115.534 125.502 113.065 126.025 110.575L137.281 60.4399H123.407L121.749 67.8453C118.956 64.8357 115.786 62.6881 112.238 61.1251C108.689 59.5622 104.53 58.8511 99.7596 58.8511C94.3503 58.8511 89.2296 60.1612 84.4019 62.7082C79.5728 65.2566 75.3412 68.7919 71.7056 73.2782C68.0686 77.766 65.2052 83.0884 63.111 89.2238C61.0168 95.3621 59.969 102.025 59.969 109.205C59.969 114.069 60.6373 118.4 61.9766 122.191C63.3145 125.983 65.1749 129.198 67.5606 131.833C69.9448 134.469 72.8097 136.467 76.1552 137.826C79.4992 139.188 83.1492 139.868 87.1051 139.868C91.7582 139.868 96.1803 138.797 100.369 136.654C104.557 134.514 108.309 131.472 111.625 127.535C111.799 129.272 112.293 130.893 113.108 132.399C113.922 133.906 115.013 135.209 116.38 136.308C117.745 137.408 119.332 138.277 121.136 138.914C122.938 139.551 124.888 139.869 126.982 139.869C133.148 139.869 138.863 138.654 144.128 136.222C149.393 133.79 153.945 130.273 157.784 125.669C161.623 121.066 164.618 115.435 166.771 108.777C168.923 102.12 170 94.5634 170 86.108C170.001 77.8823 168.473 70.2256 165.419 63.132ZM113.022 104.603C112.206 108.136 111.043 111.306 109.532 114.113C108.018 116.923 106.26 119.325 104.252 121.322C102.245 123.32 100.021 124.854 97.5774 125.924C95.134 126.996 92.6039 127.531 89.9859 127.531C79.9798 127.531 74.9775 121.249 74.9775 108.683C74.9775 103.53 75.6601 98.6676 77.0283 94.0922C78.3936 89.5197 80.2136 85.5247 82.4824 82.1072C84.7512 78.6911 87.3822 75.9847 90.3784 73.9865C93.3732 71.9897 96.4993 70.9898 99.7582 70.9898C104.177 70.9898 107.93 71.8015 111.014 73.4219C114.097 75.0437 116.656 77.0132 118.692 79.3275L113.022 104.603Z" fill="#20232A"/>
</svg>
