<svg width="200" height="200" viewBox="0 0 200 200" fill="none" xmlns="http://www.w3.org/2000/svg">
<path d="M28.1087 57.9798C32.3158 60.24 90.5357 97.0713 92.7026 98.2173C94.8694 99.3792 97.6847 99.9363 100.5 99.9363C103.331 99.9363 106.131 99.3792 108.297 98.2173C110.464 97.0713 168.684 60.24 172.891 57.9798C177.098 55.7355 181.084 48 173.35 48H27.65C19.9316 48 23.9015 55.7355 28.1087 57.9798ZM174.663 71.8433C169.886 74.3263 111.223 109.948 108.297 111.476C105.371 113.004 103.315 113.195 100.5 113.195C97.6689 113.195 95.6286 113.004 92.7026 111.476C89.7765 109.964 31.1138 74.3263 26.3373 71.8433C22.9684 70.1084 23 72.1457 23 73.7374C23 75.3131 23 143.771 23 143.771C23 147.368 27.8082 152 31.5408 152H169.459C173.192 152 178 147.368 178 143.771C178 143.771 178 75.3131 178 73.7374C178 72.1457 178.032 70.1084 174.663 71.8433Z" fill="#20232A"/>
</svg>
