<svg width="200" height="200" viewBox="0 0 200 200" fill="none" xmlns="http://www.w3.org/2000/svg">
<rect width="200" height="200" rx="10" fill="#CED100"/>
<path d="M174 84H140V42C140 38.685 137.315 36 134 36H98C94.685 36 92 38.685 92 42V60H76V40C76 37.79 74.21 36 72 36H68C65.79 36 64 37.79 64 40V60H48V40C48 37.79 46.21 36 44 36H40C37.79 36 36 37.79 36 40V60H26C22.685 60 20 62.685 20 66V156C20 160.418 23.5825 164 28 164H172C176.418 164 180 160.418 180 156V90C180 86.685 177.312 84 174 84ZM52 137C52 138.658 50.6575 140 49 140H39C37.3425 140 36 138.658 36 137V127C36 125.342 37.3425 124 39 124H49C50.6575 124 52 125.342 52 127V137ZM52 113C52 114.658 50.6575 116 49 116H39C37.3425 116 36 114.658 36 113V103C36 101.342 37.3425 100 39 100H49C50.6575 100 52 101.342 52 103V113ZM52 89C52 90.6575 50.6575 92 49 92H39C37.3425 92 36 90.6575 36 89V79C36 77.3425 37.3425 76 39 76H49C50.6575 76 52 77.3425 52 79V89ZM84 137C84 138.658 82.6575 140 81 140H71C69.3425 140 68 138.658 68 137V127C68 125.342 69.3425 124 71 124H81C82.6575 124 84 125.342 84 127V137ZM84 113C84 114.658 82.6575 116 81 116H71C69.3425 116 68 114.658 68 113V103C68 101.342 69.3425 100 71 100H81C82.6575 100 84 101.342 84 103V113ZM84 89C84 90.6575 82.6575 92 81 92H71C69.3425 92 68 90.6575 68 89V79C68 77.3425 69.3425 76 71 76H81C82.6575 76 84 77.3425 84 79V89ZM124 113C124 114.658 122.658 116 121 116H111C109.342 116 108 114.658 108 113V103C108 101.342 109.342 100 111 100H121C122.658 100 124 101.342 124 103V113ZM124 89C124 90.6575 122.658 92 121 92H111C109.342 92 108 90.6575 108 89V79C108 77.3425 109.342 76 111 76H121C122.658 76 124 77.3425 124 79V89ZM124 65C124 66.6575 122.658 68 121 68H111C109.342 68 108 66.6575 108 65V55C108 53.3425 109.342 52 111 52H121C122.658 52 124 53.3425 124 55V65ZM164 137C164 138.658 162.658 140 161 140H151C149.342 140 148 138.658 148 137V127C148 125.342 149.342 124 151 124H161C162.658 124 164 125.342 164 127V137ZM164 113C164 114.658 162.658 116 161 116H151C149.342 116 148 114.658 148 113V103C148 101.342 149.342 100 151 100H161C162.658 100 164 101.342 164 103V113Z" fill="#20232A"/>
</svg>
