<svg width="100" height="100" viewBox="0 0 100 100" fill="none" xmlns="http://www.w3.org/2000/svg">
<rect width="100" height="100" rx="10" fill="#CED100"/>
<path d="M87 42H70V21C70 19.3425 68.6575 18 67 18H49C47.3425 18 46 19.3425 46 21V30H38V20C38 18.895 37.105 18 36 18H34C32.895 18 32 18.895 32 20V30H24V20C24 18.895 23.105 18 22 18H20C18.895 18 18 18.895 18 20V30H13C11.3425 30 10 31.3425 10 33V78C10 80.2088 11.7912 82 14 82H86C88.2088 82 90 80.2088 90 78V45C90 43.3425 88.6562 42 87 42ZM26 68.5C26 69.3288 25.3288 70 24.5 70H19.5C18.6712 70 18 69.3288 18 68.5V63.5C18 62.6712 18.6712 62 19.5 62H24.5C25.3288 62 26 62.6712 26 63.5V68.5ZM26 56.5C26 57.3288 25.3288 58 24.5 58H19.5C18.6712 58 18 57.3288 18 56.5V51.5C18 50.6712 18.6712 50 19.5 50H24.5C25.3288 50 26 50.6712 26 51.5V56.5ZM26 44.5C26 45.3288 25.3288 46 24.5 46H19.5C18.6712 46 18 45.3288 18 44.5V39.5C18 38.6712 18.6712 38 19.5 38H24.5C25.3288 38 26 38.6712 26 39.5V44.5ZM42 68.5C42 69.3288 41.3288 70 40.5 70H35.5C34.6712 70 34 69.3288 34 68.5V63.5C34 62.6712 34.6712 62 35.5 62H40.5C41.3288 62 42 62.6712 42 63.5V68.5ZM42 56.5C42 57.3288 41.3288 58 40.5 58H35.5C34.6712 58 34 57.3288 34 56.5V51.5C34 50.6712 34.6712 50 35.5 50H40.5C41.3288 50 42 50.6712 42 51.5V56.5ZM42 44.5C42 45.3288 41.3288 46 40.5 46H35.5C34.6712 46 34 45.3288 34 44.5V39.5C34 38.6712 34.6712 38 35.5 38H40.5C41.3288 38 42 38.6712 42 39.5V44.5ZM62 56.5C62 57.3288 61.3288 58 60.5 58H55.5C54.6712 58 54 57.3288 54 56.5V51.5C54 50.6712 54.6712 50 55.5 50H60.5C61.3288 50 62 50.6712 62 51.5V56.5ZM62 44.5C62 45.3288 61.3288 46 60.5 46H55.5C54.6712 46 54 45.3288 54 44.5V39.5C54 38.6712 54.6712 38 55.5 38H60.5C61.3288 38 62 38.6712 62 39.5V44.5ZM62 32.5C62 33.3288 61.3288 34 60.5 34H55.5C54.6712 34 54 33.3288 54 32.5V27.5C54 26.6712 54.6712 26 55.5 26H60.5C61.3288 26 62 26.6712 62 27.5V32.5ZM82 68.5C82 69.3288 81.3288 70 80.5 70H75.5C74.6712 70 74 69.3288 74 68.5V63.5C74 62.6712 74.6712 62 75.5 62H80.5C81.3288 62 82 62.6712 82 63.5V68.5ZM82 56.5C82 57.3288 81.3288 58 80.5 58H75.5C74.6712 58 74 57.3288 74 56.5V51.5C74 50.6712 74.6712 50 75.5 50H80.5C81.3288 50 82 50.6712 82 51.5V56.5Z" fill="black"/>
</svg>
