<svg width="1500" height="500" viewBox="0 0 1500 500" fill="none" xmlns="http://www.w3.org/2000/svg">
<rect width="1500" height="500" rx="25" fill="#CED100"/>
<rect width="50" height="150" rx="25" fill="#20232A"/>
<rect width="150" height="50" rx="25" fill="#20232A"/>
<rect x="1500" y="500" width="50" height="150" rx="25" transform="rotate(-180 1500 500)" fill="#20232A"/>
<rect x="1500" y="500" width="150" height="50" rx="25" transform="rotate(-180 1500 500)" fill="#20232A"/>
<rect x="150" y="426" width="535" height="10" fill="#20232A"/>
<path d="M204.6 406.4C195.85 406.4 187.45 405.117 179.4 402.55C171.467 399.867 165.108 396.308 160.325 391.875C158.575 390.242 157.7 388.2 157.7 385.75C157.7 384.117 158.167 382.717 159.1 381.55C160.033 380.267 161.142 379.625 162.425 379.625C163.942 379.625 165.575 380.267 167.325 381.55C178.175 389.95 190.542 394.15 204.425 394.15C214.458 394.15 222.158 392.225 227.525 388.375C232.892 384.525 235.575 379.042 235.575 371.925C235.575 367.842 234.292 364.575 231.725 362.125C229.158 359.558 225.775 357.517 221.575 356C217.375 354.483 211.717 352.908 204.6 351.275C195.033 349.058 187.158 346.725 180.975 344.275C174.908 341.825 169.95 338.325 166.1 333.775C162.367 329.225 160.5 323.275 160.5 315.925C160.5 308.925 162.367 302.742 166.1 297.375C169.95 291.892 175.258 287.692 182.025 284.775C188.908 281.742 196.725 280.225 205.475 280.225C213.642 280.225 221.225 281.508 228.225 284.075C235.342 286.525 241.292 290.083 246.075 294.75C247.942 296.617 248.875 298.658 248.875 300.875C248.875 302.508 248.408 303.967 247.475 305.25C246.542 306.417 245.433 307 244.15 307C242.867 307 241.175 306.358 239.075 305.075C233.358 300.408 228.05 297.142 223.15 295.275C218.25 293.408 212.358 292.475 205.475 292.475C195.792 292.475 188.267 294.517 182.9 298.6C177.533 302.567 174.85 308.167 174.85 315.4C174.85 321.583 177.183 326.25 181.85 329.4C186.633 332.433 193.925 335.117 203.725 337.45C214.342 340.017 222.683 342.408 228.75 344.625C234.817 346.725 239.833 349.933 243.8 354.25C247.883 358.567 249.925 364.342 249.925 371.575C249.925 378.458 248 384.525 244.15 389.775C240.417 395.025 235.108 399.108 228.225 402.025C221.342 404.942 213.467 406.4 204.6 406.4ZM309.995 394.675C314.078 395.025 316.12 396.892 316.12 400.275C316.12 402.258 315.362 403.775 313.845 404.825C312.445 405.758 310.287 406.108 307.37 405.875L302.645 405.525C293.312 404.825 286.428 402.025 281.995 397.125C277.562 392.225 275.345 384.817 275.345 374.9V330.975H263.62C261.637 330.975 260.062 330.508 258.895 329.575C257.845 328.525 257.32 327.183 257.32 325.55C257.32 323.8 257.845 322.4 258.895 321.35C260.062 320.3 261.637 319.775 263.62 319.775H275.345V300C275.345 297.783 275.987 296.092 277.27 294.925C278.553 293.642 280.303 293 282.52 293C284.62 293 286.312 293.642 287.595 294.925C288.878 296.092 289.52 297.783 289.52 300V319.775H308.945C310.812 319.775 312.27 320.3 313.32 321.35C314.487 322.4 315.07 323.8 315.07 325.55C315.07 327.183 314.487 328.525 313.32 329.575C312.27 330.508 310.812 330.975 308.945 330.975H289.52V375.6C289.52 382.017 290.803 386.683 293.37 389.6C296.053 392.4 300.02 393.975 305.27 394.325L309.995 394.675ZM364.918 317.675C386.268 317.675 396.943 328.875 396.943 351.275V398.875C396.943 400.975 396.301 402.667 395.018 403.95C393.851 405.233 392.218 405.875 390.118 405.875C388.018 405.875 386.326 405.233 385.043 403.95C383.759 402.667 383.118 400.975 383.118 398.875V390.475C380.901 395.492 377.518 399.4 372.968 402.2C368.418 404.883 363.168 406.225 357.218 406.225C351.734 406.225 346.659 405.117 341.993 402.9C337.443 400.683 333.826 397.592 331.143 393.625C328.459 389.658 327.118 385.283 327.118 380.5C327.118 374.083 328.751 369.125 332.018 365.625C335.284 362.008 340.651 359.442 348.118 357.925C355.584 356.292 365.968 355.475 379.268 355.475H383.118V349.7C383.118 342.7 381.659 337.567 378.743 334.3C375.943 331.033 371.334 329.4 364.918 329.4C356.984 329.4 348.934 331.558 340.768 335.875C337.618 337.858 335.401 338.85 334.118 338.85C332.718 338.85 331.551 338.325 330.618 337.275C329.684 336.225 329.218 334.883 329.218 333.25C329.218 331.617 329.684 330.217 330.618 329.05C331.668 327.767 333.301 326.483 335.518 325.2C339.601 322.867 344.209 321.058 349.343 319.775C354.593 318.375 359.784 317.675 364.918 317.675ZM359.143 395.025C366.143 395.025 371.859 392.692 376.293 388.025C380.843 383.242 383.118 377.117 383.118 369.65V364.575H379.968C369.701 364.575 361.884 365.042 356.518 365.975C351.151 366.792 347.301 368.25 344.968 370.35C342.751 372.333 341.643 375.308 341.643 379.275C341.643 383.825 343.276 387.617 346.543 390.65C349.926 393.567 354.126 395.025 359.143 395.025ZM484.316 322.4C485.599 319.6 487.641 318.2 490.441 318.2C492.191 318.2 493.766 318.783 495.166 319.95C496.566 321.117 497.266 322.575 497.266 324.325C497.266 325.375 497.032 326.308 496.566 327.125L462.441 400.625C461.741 402.142 460.691 403.367 459.291 404.3C457.891 405.117 456.374 405.525 454.741 405.525C453.224 405.525 451.766 405.117 450.366 404.3C448.966 403.367 447.857 402.142 447.041 400.625L413.091 327.125C412.624 326.308 412.391 325.433 412.391 324.5C412.391 322.75 413.149 321.233 414.666 319.95C416.299 318.667 418.049 318.025 419.916 318.025C421.082 318.025 422.191 318.375 423.241 319.075C424.407 319.775 425.282 320.767 425.866 322.05L455.091 387.675L484.316 322.4ZM555.658 317.675C563.125 317.675 569.717 319.483 575.433 323.1C581.15 326.717 585.583 331.85 588.733 338.5C591.883 345.15 593.458 352.85 593.458 361.6C593.458 370.467 591.883 378.283 588.733 385.05C585.583 391.7 581.15 396.892 575.433 400.625C569.717 404.358 563.125 406.225 555.658 406.225C549.008 406.225 543.175 404.767 538.158 401.85C533.258 398.933 529.525 394.792 526.958 389.425V398.875C526.958 400.975 526.317 402.667 525.033 403.95C523.867 405.233 522.175 405.875 519.958 405.875C517.742 405.875 515.992 405.233 514.708 403.95C513.425 402.667 512.783 400.975 512.783 398.875V287.575C512.783 285.592 513.425 283.958 514.708 282.675C515.992 281.392 517.742 280.75 519.958 280.75C522.175 280.75 523.867 281.392 525.033 282.675C526.317 283.842 526.958 285.475 526.958 287.575V334.475C529.525 329.108 533.258 324.967 538.158 322.05C543.175 319.133 549.008 317.675 555.658 317.675ZM552.858 394.5C561.142 394.5 567.558 391.642 572.108 385.925C576.658 380.092 578.933 371.983 578.933 361.6C578.933 351.45 576.658 343.575 572.108 337.975C567.558 332.375 561.142 329.575 552.858 329.575C544.575 329.575 538.158 332.375 533.608 337.975C529.175 343.575 526.958 351.567 526.958 361.95C526.958 372.333 529.175 380.383 533.608 386.1C538.158 391.7 544.575 394.5 552.858 394.5ZM649.464 317.675C670.814 317.675 681.489 328.875 681.489 351.275V398.875C681.489 400.975 680.847 402.667 679.564 403.95C678.397 405.233 676.764 405.875 674.664 405.875C672.564 405.875 670.872 405.233 669.589 403.95C668.305 402.667 667.664 400.975 667.664 398.875V390.475C665.447 395.492 662.064 399.4 657.514 402.2C652.964 404.883 647.714 406.225 641.764 406.225C636.28 406.225 631.205 405.117 626.539 402.9C621.989 400.683 618.372 397.592 615.689 393.625C613.005 389.658 611.664 385.283 611.664 380.5C611.664 374.083 613.297 369.125 616.564 365.625C619.83 362.008 625.197 359.442 632.664 357.925C640.13 356.292 650.514 355.475 663.814 355.475H667.664V349.7C667.664 342.7 666.205 337.567 663.289 334.3C660.489 331.033 655.88 329.4 649.464 329.4C641.53 329.4 633.48 331.558 625.314 335.875C622.164 337.858 619.947 338.85 618.664 338.85C617.264 338.85 616.097 338.325 615.164 337.275C614.23 336.225 613.764 334.883 613.764 333.25C613.764 331.617 614.23 330.217 615.164 329.05C616.214 327.767 617.847 326.483 620.064 325.2C624.147 322.867 628.755 321.058 633.889 319.775C639.139 318.375 644.33 317.675 649.464 317.675ZM643.689 395.025C650.689 395.025 656.405 392.692 660.839 388.025C665.389 383.242 667.664 377.117 667.664 369.65V364.575H664.514C654.247 364.575 646.43 365.042 641.064 365.975C635.697 366.792 631.847 368.25 629.514 370.35C627.297 372.333 626.189 375.308 626.189 379.275C626.189 383.825 627.822 387.617 631.089 390.65C634.472 393.567 638.672 395.025 643.689 395.025Z" fill="#20232A"/>
<path d="M174.15 239C170.767 239 168.083 238.067 166.1 236.2C164.233 234.333 163.3 231.708 163.3 228.325V126.3C163.3 122.917 164.233 120.292 166.1 118.425C168.083 116.558 170.767 115.625 174.15 115.625H208.8C228.983 115.625 244.617 121.05 255.7 131.9C266.9 142.633 272.5 157.742 272.5 177.225C272.5 196.825 266.9 212.05 255.7 222.9C244.617 233.633 228.983 239 208.8 239H174.15ZM207.4 220.625C235.75 220.625 249.925 206.158 249.925 177.225C249.925 148.408 235.75 134 207.4 134H185.875V220.625H207.4ZM332.334 240.4C323.584 240.4 315.884 238.592 309.234 234.975C302.7 231.358 297.625 226.167 294.009 219.4C290.392 212.633 288.584 204.758 288.584 195.775C288.584 186.792 290.392 178.975 294.009 172.325C297.625 165.558 302.7 160.367 309.234 156.75C315.884 153.133 323.584 151.325 332.334 151.325C341.084 151.325 348.725 153.133 355.259 156.75C361.909 160.367 366.984 165.558 370.484 172.325C374.1 178.975 375.909 186.792 375.909 195.775C375.909 204.758 374.1 212.633 370.484 219.4C366.984 226.167 361.909 231.358 355.259 234.975C348.725 238.592 341.084 240.4 332.334 240.4ZM332.159 223.425C339.275 223.425 344.7 221.092 348.434 216.425C352.167 211.758 354.034 204.875 354.034 195.775C354.034 186.792 352.167 179.967 348.434 175.3C344.7 170.517 339.334 168.125 332.334 168.125C325.334 168.125 319.909 170.517 316.059 175.3C312.325 179.967 310.459 186.792 310.459 195.775C310.459 204.875 312.325 211.758 316.059 216.425C319.792 221.092 325.159 223.425 332.159 223.425ZM443.143 151.325C450.609 151.325 457.201 153.133 462.918 156.75C468.634 160.367 473.068 165.5 476.218 172.15C479.484 178.8 481.118 186.558 481.118 195.425C481.118 204.292 479.484 212.167 476.218 219.05C473.068 225.817 468.576 231.067 462.743 234.8C457.026 238.533 450.493 240.4 443.143 240.4C436.959 240.4 431.418 239.058 426.518 236.375C421.734 233.692 418.059 229.958 415.493 225.175V229.55C415.493 232.7 414.501 235.208 412.518 237.075C410.534 238.942 407.909 239.875 404.643 239.875C401.376 239.875 398.751 238.942 396.768 237.075C394.901 235.208 393.968 232.7 393.968 229.55V124.9C393.968 121.867 394.959 119.417 396.943 117.55C399.043 115.683 401.726 114.75 404.993 114.75C408.259 114.75 410.884 115.625 412.868 117.375C414.851 119.125 415.843 121.517 415.843 124.55V165.85C418.409 161.183 422.084 157.625 426.868 155.175C431.651 152.608 437.076 151.325 443.143 151.325ZM437.368 223.425C444.251 223.425 449.618 220.975 453.468 216.075C457.318 211.175 459.243 204.292 459.243 195.425C459.243 186.675 457.318 179.967 453.468 175.3C449.734 170.633 444.368 168.3 437.368 168.3C430.368 168.3 424.943 170.692 421.093 175.475C417.359 180.142 415.493 186.908 415.493 195.775C415.493 204.642 417.359 211.467 421.093 216.25C424.943 221.033 430.368 223.425 437.368 223.425ZM546.845 151.675C549.879 151.442 552.27 152.083 554.02 153.6C555.77 155.117 556.645 157.392 556.645 160.425C556.645 163.575 555.887 165.908 554.37 167.425C552.854 168.942 550.112 169.933 546.145 170.4L540.895 170.925C534.012 171.625 528.937 173.958 525.67 177.925C522.52 181.892 520.945 186.85 520.945 192.8V229.55C520.945 232.933 519.895 235.558 517.795 237.425C515.695 239.175 513.07 240.05 509.92 240.05C506.77 240.05 504.145 239.175 502.045 237.425C500.062 235.558 499.07 232.933 499.07 229.55V161.825C499.07 158.558 500.062 156.05 502.045 154.3C504.145 152.55 506.712 151.675 509.745 151.675C512.779 151.675 515.229 152.55 517.095 154.3C518.962 155.933 519.895 158.325 519.895 161.475V168.475C522.112 163.342 525.379 159.375 529.695 156.575C534.129 153.775 539.029 152.2 544.395 151.85L546.845 151.675ZM602.821 151.325C614.721 151.325 623.529 154.3 629.246 160.25C635.079 166.083 637.996 175.008 637.996 187.025V229.725C637.996 232.875 637.062 235.383 635.196 237.25C633.329 239 630.762 239.875 627.496 239.875C624.462 239.875 621.954 238.942 619.971 237.075C618.104 235.208 617.171 232.758 617.171 229.725V225.875C615.187 230.425 612.037 233.983 607.721 236.55C603.521 239.117 598.621 240.4 593.021 240.4C587.304 240.4 582.112 239.233 577.446 236.9C572.779 234.567 569.104 231.358 566.421 227.275C563.737 223.192 562.396 218.642 562.396 213.625C562.396 207.325 563.971 202.367 567.121 198.75C570.387 195.133 575.637 192.508 582.871 190.875C590.104 189.242 600.079 188.425 612.796 188.425H617.171V184.4C617.171 178.683 615.946 174.542 613.496 171.975C611.046 169.292 607.079 167.95 601.596 167.95C598.212 167.95 594.771 168.475 591.271 169.525C587.771 170.458 583.629 171.858 578.846 173.725C575.812 175.242 573.596 176 572.196 176C570.096 176 568.346 175.242 566.946 173.725C565.662 172.208 565.021 170.225 565.021 167.775C565.021 165.792 565.487 164.1 566.421 162.7C567.471 161.183 569.162 159.783 571.496 158.5C575.579 156.283 580.421 154.533 586.021 153.25C591.737 151.967 597.337 151.325 602.821 151.325ZM597.396 224.65C603.229 224.65 607.954 222.725 611.571 218.875C615.304 214.908 617.171 209.833 617.171 203.65V199.975H614.021C606.204 199.975 600.137 200.325 595.821 201.025C591.504 201.725 588.412 202.95 586.546 204.7C584.679 206.45 583.746 208.842 583.746 211.875C583.746 215.608 585.029 218.7 587.596 221.15C590.279 223.483 593.546 224.65 597.396 224.65ZM607.196 141.7C605.912 142.633 604.629 143.1 603.346 143.1C601.712 143.1 600.312 142.575 599.146 141.525C598.096 140.358 597.571 139.017 597.571 137.5C597.571 136.217 598.037 134.933 598.971 133.65L615.946 111.075C618.629 107.575 621.721 105.825 625.221 105.825C627.787 105.825 629.946 106.758 631.696 108.625C633.562 110.375 634.496 112.475 634.496 114.925C634.496 118.192 632.921 120.992 629.771 123.325L607.196 141.7Z" fill="#20232A"/>
<path d="M1094.7 192.351L966.672 303.879V424.249C966.672 427.365 967.842 430.354 969.926 432.558C972.01 434.762 974.836 436 977.782 436L1055.6 435.787C1058.53 435.771 1061.34 434.527 1063.42 432.324C1065.49 430.122 1066.65 427.142 1066.65 424.036V353.741C1066.65 350.624 1067.82 347.635 1069.9 345.431C1071.99 343.228 1074.81 341.99 1077.76 341.99H1122.2C1125.15 341.99 1127.97 343.228 1130.06 345.431C1132.14 347.635 1133.31 350.624 1133.31 353.741V423.984C1133.31 425.531 1133.59 427.063 1134.15 428.493C1134.7 429.923 1135.52 431.222 1136.55 432.317C1137.59 433.413 1138.81 434.281 1140.16 434.874C1141.51 435.467 1142.96 435.772 1144.42 435.772L1222.21 436C1225.15 436 1227.98 434.762 1230.06 432.558C1232.15 430.354 1233.32 427.365 1233.32 424.249V303.798L1105.32 192.351C1103.82 191.068 1101.94 190.369 1100.01 190.369C1098.08 190.369 1096.2 191.068 1094.7 192.351ZM1296.92 268.155L1238.87 217.543V115.813C1238.87 113.476 1238 111.234 1236.43 109.581C1234.87 107.929 1232.75 107 1230.54 107H1191.65C1189.44 107 1187.33 107.929 1185.76 109.581C1184.2 111.234 1183.32 113.476 1183.32 115.813V169.142L1121.15 115.042C1115.19 109.85 1107.7 107.01 1099.97 107.01C1092.25 107.01 1084.76 109.85 1078.8 115.042L903.024 268.155C902.18 268.892 901.482 269.798 900.97 270.822C900.457 271.845 900.14 272.965 900.037 274.117C899.934 275.27 900.046 276.433 900.368 277.539C900.69 278.646 901.215 279.675 901.913 280.567L919.62 303.335C920.316 304.23 921.172 304.971 922.139 305.516C923.106 306.061 924.166 306.398 925.256 306.51C926.347 306.621 927.448 306.503 928.495 306.164C929.543 305.825 930.517 305.27 931.362 304.532L1094.7 162.239C1096.2 160.956 1098.08 160.256 1100.01 160.256C1101.94 160.256 1103.82 160.956 1105.32 162.239L1268.66 304.532C1269.51 305.27 1270.48 305.826 1271.52 306.166C1272.57 306.506 1273.67 306.626 1274.76 306.516C1275.85 306.407 1276.91 306.072 1277.88 305.53C1278.84 304.988 1279.7 304.25 1280.4 303.357L1298.1 280.589C1298.8 279.692 1299.32 278.658 1299.64 277.546C1299.96 276.435 1300.07 275.268 1299.96 274.112C1299.85 272.957 1299.52 271.835 1299 270.813C1298.48 269.791 1297.78 268.887 1296.92 268.155Z" fill="#20232A"/>
</svg>
