<svg width="1500" height="500" viewBox="0 0 1500 500" fill="none" xmlns="http://www.w3.org/2000/svg">
<rect width="1500" height="500" fill="#CED100"/>
<rect width="50" height="150" fill="black"/>
<rect width="150" height="50" fill="black"/>
<rect x="1500" y="500" width="50" height="150" transform="rotate(-180 1500 500)" fill="black"/>
<rect x="1500" y="500" width="150" height="50" transform="rotate(-180 1500 500)" fill="black"/>
<rect x="41" y="419" width="535" height="10" fill="black"/>
<path d="M61.3394 401.044V384.125C63.2762 385.834 65.5833 387.372 68.2607 388.739C70.9951 390.106 73.8434 391.274 76.8057 392.243C79.8249 393.154 82.8441 393.866 85.8633 394.379C88.8825 394.892 91.6738 395.148 94.2373 395.148C103.067 395.148 109.647 393.524 113.976 390.277C118.362 386.973 120.556 382.245 120.556 376.093C120.556 372.789 119.815 369.912 118.334 367.462C116.91 365.013 114.916 362.791 112.353 360.797C109.789 358.747 106.741 356.81 103.209 354.987C99.7345 353.107 95.9748 351.142 91.9302 349.091C87.6577 346.926 83.6701 344.733 79.9673 342.511C76.2645 340.29 73.0459 337.84 70.3115 335.163C67.5771 332.485 65.4124 329.466 63.8174 326.105C62.2793 322.687 61.5103 318.699 61.5103 314.142C61.5103 308.559 62.735 303.717 65.1846 299.616C67.6341 295.457 70.8527 292.039 74.8403 289.362C78.828 286.684 83.3568 284.691 88.4268 283.38C93.5537 282.07 98.7661 281.415 104.064 281.415C116.141 281.415 124.942 282.868 130.468 285.773V301.923C123.233 296.91 113.948 294.403 102.611 294.403C99.4782 294.403 96.3451 294.745 93.2119 295.429C90.0788 296.055 87.2874 297.109 84.8379 298.59C82.3883 300.071 80.3945 301.98 78.8564 304.315C77.3184 306.651 76.5493 309.499 76.5493 312.86C76.5493 315.993 77.119 318.699 78.2583 320.978C79.4546 323.257 81.1921 325.336 83.4707 327.216C85.7493 329.096 88.5122 330.919 91.7593 332.685C95.0633 334.451 98.8516 336.387 103.124 338.495C107.51 340.66 111.669 342.938 115.6 345.331C119.53 347.724 122.977 350.373 125.939 353.278C128.901 356.183 131.237 359.402 132.946 362.934C134.712 366.465 135.595 370.51 135.595 375.067C135.595 381.106 134.398 386.233 132.006 390.448C129.67 394.607 126.48 397.996 122.436 400.617C118.448 403.237 113.834 405.117 108.593 406.256C103.352 407.453 97.8262 408.051 92.0156 408.051C90.0788 408.051 87.6862 407.88 84.8379 407.538C81.9896 407.253 79.0843 406.798 76.1221 406.171C73.1598 405.601 70.34 404.889 67.6626 404.035C65.0422 403.123 62.9344 402.126 61.3394 401.044ZM193.102 405.146C189.798 406.968 185.44 407.88 180.028 407.88C164.704 407.88 157.042 399.335 157.042 382.245V330.463H142.003V318.5H157.042V297.138L171.056 292.609V318.5H193.102V330.463H171.056V379.767C171.056 385.635 172.053 389.822 174.047 392.328C176.041 394.835 179.345 396.088 183.959 396.088C187.491 396.088 190.539 395.119 193.102 393.183V405.146ZM274.45 406H260.436V392.328H260.094C253.999 402.81 245.027 408.051 233.178 408.051C224.462 408.051 217.626 405.744 212.67 401.129C207.771 396.515 205.321 390.391 205.321 382.758C205.321 366.409 214.949 356.895 234.203 354.218L260.436 350.543C260.436 335.675 254.426 328.241 242.406 328.241C231.868 328.241 222.354 331.83 213.866 339.008V324.652C222.468 319.184 232.38 316.449 243.603 316.449C264.167 316.449 274.45 327.33 274.45 349.091V406ZM260.436 361.737L239.33 364.643C232.836 365.554 227.937 367.178 224.633 369.513C221.329 371.792 219.677 375.865 219.677 381.732C219.677 386.005 221.186 389.508 224.206 392.243C227.282 394.92 231.355 396.259 236.425 396.259C243.375 396.259 249.1 393.838 253.6 388.996C258.157 384.097 260.436 377.916 260.436 370.453V361.737ZM369.64 318.5L334.777 406H321.02L287.865 318.5H303.246L325.463 382.074C327.115 386.745 328.14 390.819 328.539 394.293H328.881C329.451 389.907 330.362 385.948 331.615 382.416L354.857 318.5H369.64ZM399.12 393.354H398.778V406H384.765V276.459H398.778V333.881H399.12C406.013 322.26 416.096 316.449 429.369 316.449C440.591 316.449 449.364 320.38 455.688 328.241C462.068 336.046 465.258 346.527 465.258 359.687C465.258 374.327 461.697 386.062 454.577 394.892C447.456 403.664 437.715 408.051 425.353 408.051C413.789 408.051 405.045 403.152 399.12 393.354ZM398.778 358.063V370.282C398.778 377.517 401.114 383.669 405.785 388.739C410.513 393.752 416.495 396.259 423.729 396.259C432.217 396.259 438.854 393.012 443.639 386.518C448.481 380.023 450.902 370.994 450.902 359.43C450.902 349.689 448.652 342.056 444.152 336.53C439.652 331.004 433.556 328.241 425.866 328.241C417.72 328.241 411.168 331.09 406.212 336.786C401.256 342.426 398.778 349.518 398.778 358.063ZM550.28 406H536.266V392.328H535.924C529.829 402.81 520.857 408.051 509.008 408.051C500.292 408.051 493.456 405.744 488.5 401.129C483.601 396.515 481.151 390.391 481.151 382.758C481.151 366.409 490.779 356.895 510.033 354.218L536.266 350.543C536.266 335.675 530.256 328.241 518.236 328.241C507.698 328.241 498.184 331.83 489.696 339.008V324.652C498.298 319.184 508.21 316.449 519.433 316.449C539.997 316.449 550.28 327.33 550.28 349.091V406ZM536.266 361.737L515.16 364.643C508.666 365.554 503.767 367.178 500.463 369.513C497.159 371.792 495.507 375.865 495.507 381.732C495.507 386.005 497.016 389.508 500.036 392.243C503.112 394.92 507.185 396.259 512.255 396.259C519.205 396.259 524.93 393.838 529.43 388.996C533.987 384.097 536.266 377.916 536.266 370.453V361.737ZM619.408 402.838V387.799C627.042 393.439 635.444 396.259 644.616 396.259C656.92 396.259 663.073 392.157 663.073 383.954C663.073 381.618 662.532 379.653 661.449 378.058C660.424 376.406 659 374.953 657.177 373.7C655.411 372.447 653.303 371.336 650.854 370.368C648.461 369.342 645.869 368.288 643.078 367.206C639.204 365.668 635.786 364.13 632.824 362.592C629.918 360.997 627.469 359.231 625.475 357.294C623.538 355.3 622.057 353.05 621.032 350.543C620.063 348.037 619.579 345.103 619.579 341.742C619.579 337.641 620.519 334.023 622.399 330.89C624.279 327.7 626.785 325.051 629.918 322.943C633.052 320.779 636.612 319.155 640.6 318.073C644.644 316.99 648.803 316.449 653.075 316.449C660.652 316.449 667.431 317.759 673.412 320.38V334.564C666.975 330.349 659.569 328.241 651.195 328.241C648.575 328.241 646.211 328.555 644.103 329.181C641.995 329.751 640.172 330.577 638.634 331.659C637.153 332.742 635.985 334.052 635.131 335.59C634.333 337.071 633.935 338.723 633.935 340.546C633.935 342.825 634.333 344.733 635.131 346.271C635.985 347.809 637.21 349.176 638.805 350.373C640.4 351.569 642.337 352.651 644.616 353.62C646.894 354.588 649.486 355.642 652.392 356.781C656.265 358.262 659.74 359.8 662.816 361.396C665.893 362.934 668.513 364.7 670.678 366.693C672.842 368.63 674.494 370.88 675.634 373.444C676.83 376.007 677.428 379.055 677.428 382.587C677.428 386.916 676.46 390.676 674.523 393.866C672.643 397.056 670.108 399.705 666.918 401.813C663.728 403.921 660.054 405.487 655.895 406.513C651.736 407.538 647.379 408.051 642.821 408.051C633.821 408.051 626.016 406.313 619.408 402.838ZM703.917 407.88C701.297 407.88 699.047 406.94 697.167 405.06C695.344 403.18 694.433 400.93 694.433 398.31C694.433 395.689 695.344 393.439 697.167 391.559C699.047 389.622 701.297 388.654 703.917 388.654C706.595 388.654 708.874 389.622 710.753 391.559C712.633 393.439 713.573 395.689 713.573 398.31C713.573 400.93 712.633 403.18 710.753 405.06C708.874 406.94 706.595 407.88 703.917 407.88ZM782.616 332.685C780.167 330.805 776.635 329.865 772.021 329.865C766.039 329.865 761.026 332.685 756.981 338.324C752.994 343.964 751 351.654 751 361.396V406H736.986V318.5H751V336.53H751.342C753.336 330.377 756.383 325.592 760.485 322.174C764.586 318.699 769.172 316.962 774.242 316.962C777.888 316.962 780.679 317.361 782.616 318.158V332.685ZM802.697 407.88C800.076 407.88 797.826 406.94 795.946 405.06C794.123 403.18 793.212 400.93 793.212 398.31C793.212 395.689 794.123 393.439 795.946 391.559C797.826 389.622 800.076 388.654 802.697 388.654C805.374 388.654 807.653 389.622 809.533 391.559C811.413 393.439 812.353 395.689 812.353 398.31C812.353 400.93 811.413 403.18 809.533 405.06C807.653 406.94 805.374 407.88 802.697 407.88ZM872.338 408.051C859.407 408.051 849.067 403.978 841.32 395.832C833.629 387.628 829.784 376.776 829.784 363.275C829.784 348.578 833.8 337.099 841.833 328.839C849.865 320.579 860.717 316.449 874.389 316.449C887.434 316.449 897.602 320.465 904.894 328.498C912.243 336.53 915.917 347.667 915.917 361.908C915.917 375.865 911.958 387.059 904.04 395.49C896.178 403.864 885.611 408.051 872.338 408.051ZM873.363 328.241C864.363 328.241 857.242 331.317 852.001 337.47C846.76 343.565 844.14 351.996 844.14 362.763C844.14 373.131 846.789 381.305 852.086 387.287C857.384 393.268 864.477 396.259 873.363 396.259C882.421 396.259 889.371 393.325 894.213 387.458C899.112 381.59 901.562 373.244 901.562 362.421C901.562 351.483 899.112 343.052 894.213 337.128C889.371 331.203 882.421 328.241 873.363 328.241Z" fill="black"/>
<path d="M65.0137 239V116.466H108.422C151.944 116.466 173.705 136.375 173.705 176.195C173.705 195.278 167.752 210.517 155.846 221.91C143.997 233.303 128.189 239 108.422 239H65.0137ZM92.6138 138.939V216.612H106.286C118.249 216.612 127.619 213.023 134.398 205.846C141.234 198.668 144.652 188.898 144.652 176.537C144.652 164.859 141.263 155.687 134.484 149.022C127.762 142.3 118.306 138.939 106.115 138.939H92.6138ZM233.092 241.136C218.509 241.136 207.03 237.063 198.656 228.917C190.339 220.714 186.181 209.605 186.181 195.592C186.181 181.122 190.51 169.815 199.169 161.668C207.828 153.465 219.534 149.364 234.289 149.364C248.815 149.364 260.208 153.465 268.468 161.668C276.728 169.815 280.858 180.61 280.858 194.054C280.858 208.58 276.586 220.059 268.041 228.49C259.553 236.921 247.903 241.136 233.092 241.136ZM233.776 170.042C227.396 170.042 222.44 172.236 218.908 176.622C215.376 181.008 213.61 187.218 213.61 195.25C213.61 212.055 220.389 220.458 233.947 220.458C246.878 220.458 253.344 211.827 253.344 194.566C253.344 178.217 246.821 170.042 233.776 170.042ZM325.719 228.832H325.377V239H298.375V109.459H325.377V164.659H325.719C332.384 154.462 341.869 149.364 354.174 149.364C365.453 149.364 374.14 153.237 380.236 160.985C386.331 168.732 389.379 179.328 389.379 192.772C389.379 207.355 385.819 219.062 378.698 227.892C371.577 236.721 362.064 241.136 350.158 241.136C339.391 241.136 331.245 237.035 325.719 228.832ZM324.95 191.917V200.89C324.95 206.529 326.574 211.201 329.821 214.903C333.068 218.606 337.226 220.458 342.296 220.458C348.449 220.458 353.205 218.093 356.566 213.365C359.984 208.58 361.693 201.83 361.693 193.114C361.693 185.879 360.127 180.239 356.994 176.195C353.917 172.093 349.503 170.042 343.749 170.042C338.337 170.042 333.837 172.065 330.248 176.109C326.716 180.154 324.95 185.423 324.95 191.917ZM463.976 175.853C460.729 174.087 456.941 173.204 452.611 173.204C446.744 173.204 442.158 175.369 438.854 179.698C435.55 183.971 433.898 189.81 433.898 197.215V239H406.896V151.5H433.898V167.735H434.24C438.512 155.886 446.203 149.962 457.311 149.962C460.159 149.962 462.381 150.304 463.976 150.987V175.853ZM549.425 239H523.876V226.439H523.534C517.667 236.237 508.979 241.136 497.472 241.136C488.984 241.136 482.291 238.744 477.392 233.958C472.549 229.116 470.128 222.679 470.128 214.647C470.128 197.671 480.183 187.873 500.292 185.252L524.047 182.091C524.047 172.521 518.863 167.735 508.495 167.735C498.07 167.735 488.158 170.84 478.759 177.049V156.712C482.519 154.776 487.646 153.067 494.14 151.585C500.691 150.104 506.644 149.364 511.999 149.364C536.95 149.364 549.425 161.811 549.425 186.705V239ZM524.047 203.453V197.557L508.153 199.608C499.381 200.747 494.994 204.706 494.994 211.485C494.994 214.562 496.048 217.097 498.156 219.09C500.32 221.027 503.226 221.996 506.872 221.996C511.942 221.996 516.072 220.258 519.262 216.783C522.452 213.251 524.047 208.808 524.047 203.453ZM541.393 110.057L514.647 137.657H495.165L517.382 110.057H541.393Z" fill="black"/>
<path d="M1201.07 153.511L1045.84 288.768V434.748C1045.84 438.528 1047.26 442.153 1049.79 444.826C1052.31 447.499 1055.74 449 1059.31 449L1153.66 448.742C1157.22 448.723 1160.63 447.213 1163.14 444.542C1165.65 441.872 1167.06 438.258 1167.06 434.49V349.239C1167.06 345.459 1168.48 341.834 1171.01 339.161C1173.54 336.489 1176.96 334.987 1180.53 334.987H1234.42C1237.99 334.987 1241.42 336.489 1243.95 339.161C1246.47 341.834 1247.89 345.459 1247.89 349.239V434.428C1247.89 436.303 1248.23 438.161 1248.9 439.895C1249.58 441.63 1250.57 443.206 1251.82 444.534C1253.07 445.862 1254.56 446.916 1256.2 447.635C1257.83 448.354 1259.59 448.724 1261.36 448.724L1355.68 449C1359.25 449 1362.68 447.499 1365.2 444.826C1367.73 442.153 1369.15 438.528 1369.15 434.748V288.67L1213.95 153.511C1212.13 151.955 1209.85 151.107 1207.51 151.107C1205.17 151.107 1202.89 151.955 1201.07 153.511ZM1446.27 245.443L1375.88 184.063V60.6887C1375.88 57.8539 1374.82 55.1352 1372.92 53.1306C1371.03 51.1261 1368.46 50 1365.78 50H1318.63C1315.95 50 1313.38 51.1261 1311.49 53.1306C1309.59 55.1352 1308.53 57.8539 1308.53 60.6887V125.364L1233.15 59.7534C1225.91 53.4558 1216.84 50.0126 1207.47 50.0126C1198.1 50.0126 1189.02 53.4558 1181.79 59.7534L968.667 245.443C967.644 246.337 966.797 247.436 966.176 248.677C965.554 249.918 965.17 251.276 965.045 252.674C964.92 254.072 965.056 255.482 965.447 256.824C965.837 258.167 966.473 259.414 967.32 260.496L988.789 288.108C989.633 289.194 990.671 290.093 991.844 290.754C993.017 291.414 994.301 291.824 995.623 291.959C996.946 292.093 998.28 291.951 999.551 291.539C1000.82 291.128 1002 290.455 1003.03 289.56L1201.07 116.991C1202.89 115.436 1205.17 114.587 1207.51 114.587C1209.85 114.587 1212.13 115.436 1213.95 116.991L1412 289.56C1413.03 290.456 1414.21 291.129 1415.47 291.542C1416.74 291.955 1418.08 292.099 1419.4 291.967C1420.72 291.834 1422 291.428 1423.18 290.77C1424.35 290.113 1425.39 289.218 1426.23 288.135L1447.7 260.523C1448.55 259.435 1449.18 258.181 1449.57 256.833C1449.95 255.485 1450.08 254.069 1449.95 252.668C1449.82 251.267 1449.42 249.907 1448.79 248.667C1448.16 247.427 1447.3 246.331 1446.27 245.443Z" fill="black"/>
</svg>
