<?xml version="1.0" encoding="UTF-8"?>
<svg width="128px" height="128px" viewBox="0 0 128 128" version="1.1" xmlns="http://www.w3.org/2000/svg" xmlns:xlink="http://www.w3.org/1999/xlink">
    <!-- Generator: Sketch 62 (91390) - https://sketch.com -->
    <title>Logo-Icon</title>
    <desc>Created with Sketch.</desc>
    <g id="Welcome" stroke="none" stroke-width="1" fill="none" fill-rule="evenodd">
        <g id="Logo-Icon">
            <rect id="Background" fill="#CED100" x="0" y="0" width="128" height="128"></rect>
            <g id="Text" transform="translate(1.022091, 18.692517)" fill="#000000" font-size="22">
                <text id="Dobr치" font-family="AvenirNext-Bold, Avenir Next" font-weight="bold">
                    <tspan x="0" y="23">Dobr치</tspan>
                </text>
                <text id="Stavba" font-family="AvenirNext-DemiBold, Avenir Next" font-weight="500">
                    <tspan x="53.5384023" y="37.3074825">Stavba</tspan>
                </text>
                <text id="Dobr치" opacity="0.1" font-family="AvenirNext-Bold, Avenir Next" font-weight="bold">
                    <tspan x="1" y="22">Dobr치</tspan>
                </text>
                <text id="Stavba" opacity="0.1" font-family="AvenirNext-DemiBold, Avenir Next" font-weight="500">
                    <tspan x="54.5384023" y="36.3074825">Stavba</tspan>
                </text>
            </g>
            <g id="Home" transform="translate(19.000000, 89.000000)">
                <rect id="Rectangle" fill="#000000" x="3" y="13" width="39" height="26"></rect>
                <path d="M23.0742977,0.111294875 L44.2905629,10.5618994 C44.9346364,10.879154 45.1995755,11.6584644 44.8823209,12.3025379 C44.6920533,12.688809 44.3253345,12.9519169 43.9073205,13.0139949 L23.0742977,2.75124642 C22.7121148,2.57284411 22.2876002,2.57284411 21.9254172,2.75124642 L21.9254172,2.75124642 L1.09312834,13.0142442 C0.465448117,12.9220929 -0.0164076158,12.381367 -0.0164076158,11.7280976 C-0.0164076158,11.2329028 0.26492497,10.7807146 0.709152126,10.5618994 L21.9254172,0.111294875 C22.2876002,-0.0671074409 22.7121148,-0.0671074409 23.0742977,0.111294875 Z" id="Combined-Shape" fill="#000000"></path>
                <path d="M23.0932116,3.3042111 L42,13 L42,13 L3,13 L21.9067884,3.3042111 C22.2792053,3.11322803 22.7207947,3.11322803 23.0932116,3.3042111 Z" id="Triangle" fill="#000000"></path>
                <path d="M16,5.14285714 L13.461,5.142 L9.022,9 L9,9 L9,0 L16,0 L16,5.14285714 Z" id="Combined-Shape" fill="#000000"></path>
                <path d="M19.3,25 L24.7,25 C25.4179702,25 26,25.5820298 26,26.3 L26,39 L26,39 L18,39 L18,26.3 C18,25.5820298 18.5820298,25 19.3,25 Z" id="Rectangle" fill="#CED100"></path>
            </g>
        </g>
    </g>
</svg>