<svg width="500" height="500" viewBox="0 0 500 500" fill="none" xmlns="http://www.w3.org/2000/svg">
<rect width="500" height="500" fill="#CED100"/>
<rect width="30" height="125" fill="black"/>
<rect width="125" height="30" fill="black"/>
<rect x="500" y="500" width="30" height="125" transform="rotate(-180 500 500)" fill="black"/>
<rect x="500" y="500" width="125" height="30" transform="rotate(-180 500 500)" fill="black"/>
<rect x="50" y="210" width="240" height="6" fill="black"/>
<path d="M54.7266 199.734V192C55.612 192.781 56.6667 193.484 57.8906 194.109C59.1406 194.734 60.4427 195.268 61.7969 195.711C63.1771 196.128 64.5573 196.453 65.9375 196.688C67.3177 196.922 68.5938 197.039 69.7656 197.039C73.8021 197.039 76.8099 196.297 78.7891 194.812C80.7943 193.302 81.7969 191.141 81.7969 188.328C81.7969 186.818 81.4583 185.503 80.7812 184.383C80.1302 183.263 79.2188 182.247 78.0469 181.336C76.875 180.398 75.4818 179.513 73.8672 178.68C72.2786 177.82 70.5599 176.922 68.7109 175.984C66.7578 174.995 64.9349 173.992 63.2422 172.977C61.5495 171.961 60.0781 170.841 58.8281 169.617C57.5781 168.393 56.5885 167.013 55.8594 165.477C55.1562 163.914 54.8047 162.091 54.8047 160.008C54.8047 157.456 55.3646 155.242 56.4844 153.367C57.6042 151.466 59.0755 149.904 60.8984 148.68C62.7214 147.456 64.7917 146.544 67.1094 145.945C69.4531 145.346 71.8359 145.047 74.2578 145.047C79.7786 145.047 83.8021 145.711 86.3281 147.039V154.422C83.0208 152.13 78.776 150.984 73.5938 150.984C72.1615 150.984 70.7292 151.141 69.2969 151.453C67.8646 151.74 66.5885 152.221 65.4688 152.898C64.349 153.576 63.4375 154.448 62.7344 155.516C62.0312 156.583 61.6797 157.885 61.6797 159.422C61.6797 160.854 61.9401 162.091 62.4609 163.133C63.0078 164.174 63.8021 165.125 64.8438 165.984C65.8854 166.844 67.1484 167.677 68.6328 168.484C70.1432 169.292 71.875 170.177 73.8281 171.141C75.8333 172.13 77.7344 173.172 79.5312 174.266C81.3281 175.359 82.9036 176.57 84.2578 177.898C85.612 179.227 86.6797 180.698 87.4609 182.312C88.2682 183.927 88.6719 185.776 88.6719 187.859C88.6719 190.62 88.125 192.964 87.0312 194.891C85.9635 196.792 84.5052 198.341 82.6562 199.539C80.8333 200.737 78.724 201.596 76.3281 202.117C73.9323 202.664 71.4062 202.938 68.75 202.938C67.8646 202.938 66.7708 202.859 65.4688 202.703C64.1667 202.573 62.8385 202.365 61.4844 202.078C60.1302 201.818 58.8411 201.492 57.6172 201.102C56.4193 200.685 55.4557 200.229 54.7266 199.734ZM114.961 201.609C113.451 202.443 111.458 202.859 108.984 202.859C101.979 202.859 98.4766 198.953 98.4766 191.141V167.469H91.6016V162H98.4766V152.234L104.883 150.164V162H114.961V167.469H104.883V190.008C104.883 192.69 105.339 194.604 106.25 195.75C107.161 196.896 108.672 197.469 110.781 197.469C112.396 197.469 113.789 197.026 114.961 196.141V201.609ZM152.148 202H145.742V195.75H145.586C142.799 200.542 138.698 202.938 133.281 202.938C129.297 202.938 126.172 201.883 123.906 199.773C121.667 197.664 120.547 194.865 120.547 191.375C120.547 183.901 124.948 179.552 133.75 178.328L145.742 176.648C145.742 169.852 142.995 166.453 137.5 166.453C132.682 166.453 128.333 168.094 124.453 171.375V164.812C128.385 162.312 132.917 161.062 138.047 161.062C147.448 161.062 152.148 166.036 152.148 175.984V202ZM145.742 181.766L136.094 183.094C133.125 183.51 130.885 184.253 129.375 185.32C127.865 186.362 127.109 188.224 127.109 190.906C127.109 192.859 127.799 194.461 129.18 195.711C130.586 196.935 132.448 197.547 134.766 197.547C137.943 197.547 140.56 196.44 142.617 194.227C144.701 191.987 145.742 189.161 145.742 185.75V181.766ZM195.664 162L179.727 202H173.438L158.281 162H165.312L175.469 191.062C176.224 193.198 176.693 195.06 176.875 196.648H177.031C177.292 194.643 177.708 192.833 178.281 191.219L188.906 162H195.664ZM209.141 196.219H208.984V202H202.578V142.781H208.984V169.031H209.141C212.292 163.719 216.901 161.062 222.969 161.062C228.099 161.062 232.109 162.859 235 166.453C237.917 170.021 239.375 174.812 239.375 180.828C239.375 187.521 237.747 192.885 234.492 196.922C231.237 200.932 226.784 202.938 221.133 202.938C215.846 202.938 211.849 200.698 209.141 196.219ZM208.984 180.086V185.672C208.984 188.979 210.052 191.792 212.188 194.109C214.349 196.401 217.083 197.547 220.391 197.547C224.271 197.547 227.305 196.062 229.492 193.094C231.706 190.125 232.812 185.997 232.812 180.711C232.812 176.258 231.784 172.768 229.727 170.242C227.669 167.716 224.883 166.453 221.367 166.453C217.643 166.453 214.648 167.755 212.383 170.359C210.117 172.938 208.984 176.18 208.984 180.086ZM278.242 202H271.836V195.75H271.68C268.893 200.542 264.792 202.938 259.375 202.938C255.391 202.938 252.266 201.883 250 199.773C247.76 197.664 246.641 194.865 246.641 191.375C246.641 183.901 251.042 179.552 259.844 178.328L271.836 176.648C271.836 169.852 269.089 166.453 263.594 166.453C258.776 166.453 254.427 168.094 250.547 171.375V164.812C254.479 162.312 259.01 161.062 264.141 161.062C273.542 161.062 278.242 166.036 278.242 175.984V202ZM271.836 181.766L262.188 183.094C259.219 183.51 256.979 184.253 255.469 185.32C253.958 186.362 253.203 188.224 253.203 190.906C253.203 192.859 253.893 194.461 255.273 195.711C256.68 196.935 258.542 197.547 260.859 197.547C264.036 197.547 266.654 196.44 268.711 194.227C270.794 191.987 271.836 189.161 271.836 185.75V181.766ZM309.844 200.555V193.68C313.333 196.258 317.174 197.547 321.367 197.547C326.992 197.547 329.805 195.672 329.805 191.922C329.805 190.854 329.557 189.956 329.062 189.227C328.594 188.471 327.943 187.807 327.109 187.234C326.302 186.661 325.339 186.154 324.219 185.711C323.125 185.242 321.94 184.76 320.664 184.266C318.893 183.562 317.331 182.859 315.977 182.156C314.648 181.427 313.529 180.62 312.617 179.734C311.732 178.823 311.055 177.794 310.586 176.648C310.143 175.503 309.922 174.161 309.922 172.625C309.922 170.75 310.352 169.096 311.211 167.664C312.07 166.206 313.216 164.995 314.648 164.031C316.081 163.042 317.708 162.299 319.531 161.805C321.38 161.31 323.281 161.062 325.234 161.062C328.698 161.062 331.797 161.661 334.531 162.859V169.344C331.589 167.417 328.203 166.453 324.375 166.453C323.177 166.453 322.096 166.596 321.133 166.883C320.169 167.143 319.336 167.521 318.633 168.016C317.956 168.51 317.422 169.109 317.031 169.812C316.667 170.49 316.484 171.245 316.484 172.078C316.484 173.12 316.667 173.992 317.031 174.695C317.422 175.398 317.982 176.023 318.711 176.57C319.44 177.117 320.326 177.612 321.367 178.055C322.409 178.497 323.594 178.979 324.922 179.5C326.693 180.177 328.281 180.88 329.688 181.609C331.094 182.312 332.292 183.12 333.281 184.031C334.271 184.917 335.026 185.945 335.547 187.117C336.094 188.289 336.367 189.682 336.367 191.297C336.367 193.276 335.924 194.995 335.039 196.453C334.18 197.911 333.021 199.122 331.562 200.086C330.104 201.049 328.424 201.766 326.523 202.234C324.622 202.703 322.63 202.938 320.547 202.938C316.432 202.938 312.865 202.143 309.844 200.555ZM348.477 202.859C347.279 202.859 346.25 202.43 345.391 201.57C344.557 200.711 344.141 199.682 344.141 198.484C344.141 197.286 344.557 196.258 345.391 195.398C346.25 194.513 347.279 194.07 348.477 194.07C349.701 194.07 350.742 194.513 351.602 195.398C352.461 196.258 352.891 197.286 352.891 198.484C352.891 199.682 352.461 200.711 351.602 201.57C350.742 202.43 349.701 202.859 348.477 202.859ZM384.453 168.484C383.333 167.625 381.719 167.195 379.609 167.195C376.875 167.195 374.583 168.484 372.734 171.062C370.911 173.641 370 177.156 370 181.609V202H363.594V162H370V170.242H370.156C371.068 167.43 372.461 165.242 374.336 163.68C376.211 162.091 378.307 161.297 380.625 161.297C382.292 161.297 383.568 161.479 384.453 161.844V168.484ZM393.633 202.859C392.435 202.859 391.406 202.43 390.547 201.57C389.714 200.711 389.297 199.682 389.297 198.484C389.297 197.286 389.714 196.258 390.547 195.398C391.406 194.513 392.435 194.07 393.633 194.07C394.857 194.07 395.898 194.513 396.758 195.398C397.617 196.258 398.047 197.286 398.047 198.484C398.047 199.682 397.617 200.711 396.758 201.57C395.898 202.43 394.857 202.859 393.633 202.859ZM425.469 202.938C419.557 202.938 414.831 201.076 411.289 197.352C407.773 193.602 406.016 188.641 406.016 182.469C406.016 175.75 407.852 170.503 411.523 166.727C415.195 162.951 420.156 161.062 426.406 161.062C432.37 161.062 437.018 162.898 440.352 166.57C443.711 170.242 445.391 175.333 445.391 181.844C445.391 188.224 443.581 193.341 439.961 197.195C436.367 201.023 431.536 202.938 425.469 202.938ZM425.938 166.453C421.823 166.453 418.568 167.859 416.172 170.672C413.776 173.458 412.578 177.312 412.578 182.234C412.578 186.974 413.789 190.711 416.211 193.445C418.633 196.18 421.875 197.547 425.938 197.547C430.078 197.547 433.255 196.206 435.469 193.523C437.708 190.841 438.828 187.026 438.828 182.078C438.828 177.078 437.708 173.224 435.469 170.516C433.255 167.807 430.078 166.453 425.938 166.453Z" fill="black"/>
<path d="M56.4062 116V59.9844H76.25C96.1458 59.9844 106.094 69.0859 106.094 87.2891C106.094 96.013 103.372 102.979 97.9297 108.188C92.513 113.396 85.2865 116 76.25 116H56.4062ZM69.0234 70.2578V105.766H75.2734C80.7422 105.766 85.026 104.125 88.125 100.844C91.25 97.5625 92.8125 93.0964 92.8125 87.4453C92.8125 82.1068 91.263 77.9141 88.1641 74.8672C85.0911 71.7943 80.7682 70.2578 75.1953 70.2578H69.0234ZM133.242 116.977C126.576 116.977 121.328 115.115 117.5 111.391C113.698 107.641 111.797 102.562 111.797 96.1562C111.797 89.5417 113.776 84.3724 117.734 80.6484C121.693 76.8984 127.044 75.0234 133.789 75.0234C140.43 75.0234 145.638 76.8984 149.414 80.6484C153.19 84.3724 155.078 89.3073 155.078 95.4531C155.078 102.094 153.125 107.341 149.219 111.195C145.339 115.049 140.013 116.977 133.242 116.977ZM133.555 84.4766C130.638 84.4766 128.372 85.4792 126.758 87.4844C125.143 89.4896 124.336 92.3281 124.336 96C124.336 103.682 127.435 107.523 133.633 107.523C139.544 107.523 142.5 103.578 142.5 95.6875C142.5 88.2135 139.518 84.4766 133.555 84.4766ZM175.586 111.352H175.43V116H163.086V56.7812H175.43V82.0156H175.586C178.633 77.3542 182.969 75.0234 188.594 75.0234C193.75 75.0234 197.721 76.7943 200.508 80.3359C203.294 83.8776 204.688 88.7214 204.688 94.8672C204.688 101.534 203.06 106.885 199.805 110.922C196.549 114.958 192.201 116.977 186.758 116.977C181.836 116.977 178.112 115.102 175.586 111.352ZM175.234 94.4766V98.5781C175.234 101.156 175.977 103.292 177.461 104.984C178.945 106.677 180.846 107.523 183.164 107.523C185.977 107.523 188.151 106.443 189.688 104.281C191.25 102.094 192.031 99.0078 192.031 95.0234C192.031 91.7161 191.315 89.138 189.883 87.2891C188.477 85.4141 186.458 84.4766 183.828 84.4766C181.354 84.4766 179.297 85.401 177.656 87.25C176.042 89.099 175.234 91.5078 175.234 94.4766ZM238.789 87.1328C237.305 86.3255 235.573 85.9219 233.594 85.9219C230.911 85.9219 228.815 86.9115 227.305 88.8906C225.794 90.8438 225.039 93.513 225.039 96.8984V116H212.695V76H225.039V83.4219H225.195C227.148 78.0052 230.664 75.2969 235.742 75.2969C237.044 75.2969 238.06 75.4531 238.789 75.7656V87.1328ZM277.852 116H266.172V110.258H266.016C263.333 114.737 259.362 116.977 254.102 116.977C250.221 116.977 247.161 115.883 244.922 113.695C242.708 111.482 241.602 108.539 241.602 104.867C241.602 97.1068 246.198 92.6276 255.391 91.4297L266.25 89.9844C266.25 85.6094 263.88 83.4219 259.141 83.4219C254.375 83.4219 249.844 84.8411 245.547 87.6797V78.3828C247.266 77.4974 249.609 76.7161 252.578 76.0391C255.573 75.362 258.294 75.0234 260.742 75.0234C272.148 75.0234 277.852 80.7135 277.852 92.0938V116ZM266.25 99.75V97.0547L258.984 97.9922C254.974 98.513 252.969 100.323 252.969 103.422C252.969 104.828 253.451 105.987 254.414 106.898C255.404 107.784 256.732 108.227 258.398 108.227C260.716 108.227 262.604 107.432 264.062 105.844C265.521 104.229 266.25 102.198 266.25 99.75ZM274.18 57.0547L261.953 69.6719H253.047L263.203 57.0547H274.18Z" fill="black"/>
<path d="M159.517 296.697L87.503 357.715V423.571C87.503 425.276 88.1614 426.911 89.3334 428.117C90.5054 429.323 92.095 430 93.7525 430L137.523 429.883C139.175 429.875 140.756 429.194 141.921 427.989C143.087 426.784 143.741 425.154 143.741 423.454V384.995C143.741 383.29 144.399 381.655 145.571 380.449C146.743 379.243 148.333 378.566 149.99 378.566H174.988C176.646 378.566 178.235 379.243 179.407 380.449C180.579 381.655 181.238 383.29 181.238 384.995V423.426C181.235 424.272 181.395 425.11 181.708 425.893C182.021 426.675 182.481 427.386 183.061 427.985C183.642 428.584 184.332 429.06 185.091 429.384C185.851 429.708 186.665 429.875 187.487 429.875L231.242 430C232.899 430 234.489 429.323 235.661 428.117C236.833 426.911 237.491 425.276 237.491 423.571V357.671L165.493 296.697C164.647 295.995 163.592 295.612 162.505 295.612C161.418 295.612 160.363 295.995 159.517 296.697V296.697ZM273.27 338.17L240.616 310.48V254.822C240.616 253.543 240.122 252.317 239.243 251.412C238.364 250.508 237.172 250 235.929 250H214.056C212.813 250 211.62 250.508 210.741 251.412C209.862 252.317 209.369 253.543 209.369 254.822V283.999L174.399 254.4C171.043 251.559 166.832 250.006 162.485 250.006C158.139 250.006 153.928 251.559 150.572 254.4L51.701 338.17C51.2264 338.573 50.8337 339.069 50.5454 339.629C50.2572 340.189 50.0789 340.801 50.0209 341.432C49.9628 342.063 50.0261 342.699 50.2072 343.304C50.3883 343.91 50.6835 344.473 51.0761 344.961L61.0363 357.417C61.4278 357.907 61.9093 358.313 62.4533 358.611C62.9973 358.909 63.5932 359.093 64.2067 359.154C64.8202 359.215 65.4393 359.151 66.0287 358.965C66.618 358.78 67.166 358.476 67.6412 358.072L159.517 280.222C160.363 279.52 161.418 279.137 162.505 279.137C163.592 279.137 164.647 279.52 165.493 280.222L257.373 358.072C257.847 358.476 258.394 358.78 258.983 358.966C259.571 359.152 260.19 359.218 260.803 359.158C261.416 359.098 262.011 358.915 262.555 358.618C263.1 358.322 263.581 357.918 263.974 357.429L273.934 344.973C274.326 344.482 274.62 343.916 274.799 343.308C274.978 342.7 275.038 342.061 274.977 341.429C274.915 340.797 274.732 340.184 274.439 339.624C274.147 339.065 273.749 338.57 273.27 338.17V338.17Z" fill="black"/>
</svg>
