<svg width="500" height="500" viewBox="0 0 500 500" fill="none" xmlns="http://www.w3.org/2000/svg">
<rect opacity="0.9" width="500" height="500" rx="250" fill="#CED100"/>
<path d="M172.506 240.566L148.501 260.905V282.857C148.501 283.425 148.72 283.97 149.111 284.372C149.502 284.774 150.032 285 150.584 285L165.174 284.961C165.725 284.958 166.252 284.731 166.64 284.33C167.029 283.928 167.247 283.385 167.247 282.818V269.998C167.247 269.43 167.466 268.885 167.857 268.483C168.248 268.081 168.778 267.855 169.33 267.855H177.663C178.215 267.855 178.745 268.081 179.136 268.483C179.526 268.885 179.746 269.43 179.746 269.998V282.809C179.745 283.091 179.798 283.37 179.903 283.631C180.007 283.892 180.16 284.129 180.354 284.328C180.547 284.528 180.777 284.687 181.03 284.795C181.284 284.903 181.555 284.958 181.829 284.958L196.414 285C196.966 285 197.496 284.774 197.887 284.372C198.278 283.97 198.497 283.425 198.497 282.857V260.89L174.498 240.566C174.216 240.332 173.864 240.204 173.502 240.204C173.139 240.204 172.788 240.332 172.506 240.566V240.566ZM210.423 254.39L199.539 245.16V226.607C199.539 226.181 199.374 225.772 199.081 225.471C198.788 225.169 198.391 225 197.976 225H190.685C190.271 225 189.873 225.169 189.58 225.471C189.287 225.772 189.123 226.181 189.123 226.607V236.333L177.466 226.467C176.348 225.52 174.944 225.002 173.495 225.002C172.046 225.002 170.643 225.52 169.524 226.467L136.567 254.39C136.409 254.524 136.278 254.69 136.182 254.876C136.086 255.063 136.026 255.267 136.007 255.477C135.988 255.688 136.009 255.9 136.069 256.101C136.129 256.303 136.228 256.491 136.359 256.654L139.679 260.806C139.809 260.969 139.97 261.104 140.151 261.204C140.332 261.303 140.531 261.364 140.736 261.385C140.94 261.405 141.146 261.384 141.343 261.322C141.539 261.26 141.722 261.159 141.88 261.024L172.506 235.074C172.788 234.84 173.139 234.712 173.502 234.712C173.864 234.712 174.216 234.84 174.498 235.074L205.124 261.024C205.282 261.159 205.465 261.26 205.661 261.322C205.857 261.384 206.063 261.406 206.268 261.386C206.472 261.366 206.67 261.305 206.852 261.206C207.033 261.107 207.194 260.973 207.325 260.81L210.645 256.658C210.775 256.494 210.873 256.305 210.933 256.103C210.993 255.9 211.013 255.687 210.992 255.476C210.972 255.266 210.911 255.061 210.813 254.875C210.716 254.688 210.583 254.523 210.423 254.39V254.39Z" fill="black"/>
<path d="M83.0234 363V152.941H157.438C232.047 152.941 269.352 187.072 269.352 255.334C269.352 288.049 259.146 314.172 238.736 333.703C218.424 353.234 191.324 363 157.438 363H83.0234ZM130.338 191.467V324.621H153.775C174.283 324.621 190.348 318.469 201.969 306.164C213.688 293.859 219.547 277.111 219.547 255.92C219.547 235.9 213.736 220.178 202.115 208.752C190.592 197.229 174.381 191.467 153.482 191.467H130.338ZM300.553 355.529V338.977C315.592 348.547 330.826 353.332 346.256 353.332C362.662 353.332 375.113 349.963 383.609 343.225C392.105 336.389 396.354 326.867 396.354 314.66C396.354 303.918 393.473 295.373 387.711 289.025C382.047 282.58 369.693 273.84 350.65 262.805C329.361 250.402 315.885 240.051 310.221 231.75C304.557 223.352 301.725 213.684 301.725 202.746C301.725 187.902 307.486 175.305 319.01 164.953C330.533 154.602 345.914 149.426 365.152 149.426C377.652 149.426 390.152 151.525 402.652 155.725V170.959C390.348 165.393 377.213 162.609 363.248 162.609C348.99 162.609 337.662 166.223 329.264 173.449C320.963 180.676 316.812 189.855 316.812 200.988C316.812 211.73 319.645 220.275 325.309 226.623C331.07 232.971 343.424 241.613 362.369 252.551C381.998 263.684 395.035 273.596 401.48 282.287C408.023 290.881 411.295 300.793 411.295 312.023C411.295 328.137 405.68 341.271 394.449 351.428C383.316 361.584 367.545 366.662 347.135 366.662C339.908 366.662 331.559 365.539 322.086 363.293C312.711 361.047 305.533 358.459 300.553 355.529Z" fill="black"/>
</svg>
