<svg width="500" height="500" viewBox="0 0 500 500" fill="none" xmlns="http://www.w3.org/2000/svg">
<rect width="500" height="500" rx="25" fill="#CED100"/>
<rect width="30" height="125" rx="15" fill="black"/>
<rect width="125" height="30" rx="15" fill="black"/>
<rect x="500" y="500" width="30" height="125" rx="15" transform="rotate(-180 500 500)" fill="black"/>
<rect x="500" y="500" width="125" height="30" rx="15" transform="rotate(-180 500 500)" fill="black"/>
<rect x="130" y="441" width="240" height="6" fill="black"/>
<path d="M160.96 422.64C156.96 422.64 153.12 422.053 149.44 420.88C145.813 419.653 142.907 418.027 140.72 416C139.92 415.253 139.52 414.32 139.52 413.2C139.52 412.453 139.733 411.813 140.16 411.28C140.587 410.693 141.093 410.4 141.68 410.4C142.373 410.4 143.12 410.693 143.92 411.28C148.88 415.12 154.533 417.04 160.88 417.04C165.467 417.04 168.987 416.16 171.44 414.4C173.893 412.64 175.12 410.133 175.12 406.88C175.12 405.013 174.533 403.52 173.36 402.4C172.187 401.227 170.64 400.293 168.72 399.6C166.8 398.907 164.213 398.187 160.96 397.44C156.587 396.427 152.987 395.36 150.16 394.24C147.387 393.12 145.12 391.52 143.36 389.44C141.653 387.36 140.8 384.64 140.8 381.28C140.8 378.08 141.653 375.253 143.36 372.8C145.12 370.293 147.547 368.373 150.64 367.04C153.787 365.653 157.36 364.96 161.36 364.96C165.093 364.96 168.56 365.547 171.76 366.72C175.013 367.84 177.733 369.467 179.92 371.6C180.773 372.453 181.2 373.387 181.2 374.4C181.2 375.147 180.987 375.813 180.56 376.4C180.133 376.933 179.627 377.2 179.04 377.2C178.453 377.2 177.68 376.907 176.72 376.32C174.107 374.187 171.68 372.693 169.44 371.84C167.2 370.987 164.507 370.56 161.36 370.56C156.933 370.56 153.493 371.493 151.04 373.36C148.587 375.173 147.36 377.733 147.36 381.04C147.36 383.867 148.427 386 150.56 387.44C152.747 388.827 156.08 390.053 160.56 391.12C165.413 392.293 169.227 393.387 172 394.4C174.773 395.36 177.067 396.827 178.88 398.8C180.747 400.773 181.68 403.413 181.68 406.72C181.68 409.867 180.8 412.64 179.04 415.04C177.333 417.44 174.907 419.307 171.76 420.64C168.613 421.973 165.013 422.64 160.96 422.64ZM209.141 417.28C211.007 417.44 211.941 418.293 211.941 419.84C211.941 420.747 211.594 421.44 210.901 421.92C210.261 422.347 209.274 422.507 207.941 422.4L205.781 422.24C201.514 421.92 198.367 420.64 196.341 418.4C194.314 416.16 193.301 412.773 193.301 408.24V388.16H187.941C187.034 388.16 186.314 387.947 185.781 387.52C185.301 387.04 185.061 386.427 185.061 385.68C185.061 384.88 185.301 384.24 185.781 383.76C186.314 383.28 187.034 383.04 187.941 383.04H193.301V374C193.301 372.987 193.594 372.213 194.181 371.68C194.767 371.093 195.567 370.8 196.581 370.8C197.541 370.8 198.314 371.093 198.901 371.68C199.487 372.213 199.781 372.987 199.781 374V383.04H208.661C209.514 383.04 210.181 383.28 210.661 383.76C211.194 384.24 211.461 384.88 211.461 385.68C211.461 386.427 211.194 387.04 210.661 387.52C210.181 387.947 209.514 388.16 208.661 388.16H199.781V408.56C199.781 411.493 200.367 413.627 201.541 414.96C202.767 416.24 204.581 416.96 206.981 417.12L209.141 417.28ZM234.248 382.08C244.008 382.08 248.888 387.2 248.888 397.44V419.2C248.888 420.16 248.595 420.933 248.008 421.52C247.475 422.107 246.728 422.4 245.768 422.4C244.808 422.4 244.035 422.107 243.448 421.52C242.861 420.933 242.568 420.16 242.568 419.2V415.36C241.555 417.653 240.008 419.44 237.928 420.72C235.848 421.947 233.448 422.56 230.728 422.56C228.221 422.56 225.901 422.053 223.768 421.04C221.688 420.027 220.035 418.613 218.808 416.8C217.581 414.987 216.968 412.987 216.968 410.8C216.968 407.867 217.715 405.6 219.208 404C220.701 402.347 223.155 401.173 226.568 400.48C229.981 399.733 234.728 399.36 240.808 399.36H242.568V396.72C242.568 393.52 241.901 391.173 240.568 389.68C239.288 388.187 237.181 387.44 234.248 387.44C230.621 387.44 226.941 388.427 223.208 390.4C221.768 391.307 220.755 391.76 220.168 391.76C219.528 391.76 218.995 391.52 218.568 391.04C218.141 390.56 217.928 389.947 217.928 389.2C217.928 388.453 218.141 387.813 218.568 387.28C219.048 386.693 219.795 386.107 220.808 385.52C222.675 384.453 224.781 383.627 227.128 383.04C229.528 382.4 231.901 382.08 234.248 382.08ZM231.608 417.44C234.808 417.44 237.421 416.373 239.448 414.24C241.528 412.053 242.568 409.253 242.568 405.84V403.52H241.128C236.435 403.52 232.861 403.733 230.408 404.16C227.955 404.533 226.195 405.2 225.128 406.16C224.115 407.067 223.608 408.427 223.608 410.24C223.608 412.32 224.355 414.053 225.848 415.44C227.395 416.773 229.315 417.44 231.608 417.44ZM288.83 384.24C289.417 382.96 290.35 382.32 291.63 382.32C292.43 382.32 293.15 382.587 293.79 383.12C294.43 383.653 294.75 384.32 294.75 385.12C294.75 385.6 294.643 386.027 294.43 386.4L278.83 420C278.51 420.693 278.03 421.253 277.39 421.68C276.75 422.053 276.057 422.24 275.31 422.24C274.617 422.24 273.95 422.053 273.31 421.68C272.67 421.253 272.163 420.693 271.79 420L256.27 386.4C256.057 386.027 255.95 385.627 255.95 385.2C255.95 384.4 256.297 383.707 256.99 383.12C257.737 382.533 258.537 382.24 259.39 382.24C259.923 382.24 260.43 382.4 260.91 382.72C261.443 383.04 261.843 383.493 262.11 384.08L275.47 414.08L288.83 384.24ZM321.444 382.08C324.857 382.08 327.87 382.907 330.484 384.56C333.097 386.213 335.124 388.56 336.564 391.6C338.004 394.64 338.724 398.16 338.724 402.16C338.724 406.213 338.004 409.787 336.564 412.88C335.124 415.92 333.097 418.293 330.484 420C327.87 421.707 324.857 422.56 321.444 422.56C318.404 422.56 315.737 421.893 313.444 420.56C311.204 419.227 309.497 417.333 308.324 414.88V419.2C308.324 420.16 308.03 420.933 307.444 421.52C306.91 422.107 306.137 422.4 305.124 422.4C304.11 422.4 303.31 422.107 302.724 421.52C302.137 420.933 301.844 420.16 301.844 419.2V368.32C301.844 367.413 302.137 366.667 302.724 366.08C303.31 365.493 304.11 365.2 305.124 365.2C306.137 365.2 306.91 365.493 307.444 366.08C308.03 366.613 308.324 367.36 308.324 368.32V389.76C309.497 387.307 311.204 385.413 313.444 384.08C315.737 382.747 318.404 382.08 321.444 382.08ZM320.164 417.2C323.95 417.2 326.884 415.893 328.964 413.28C331.044 410.613 332.084 406.907 332.084 402.16C332.084 397.52 331.044 393.92 328.964 391.36C326.884 388.8 323.95 387.52 320.164 387.52C316.377 387.52 313.444 388.8 311.364 391.36C309.337 393.92 308.324 397.573 308.324 402.32C308.324 407.067 309.337 410.747 311.364 413.36C313.444 415.92 316.377 417.2 320.164 417.2ZM364.326 382.08C374.086 382.08 378.966 387.2 378.966 397.44V419.2C378.966 420.16 378.673 420.933 378.086 421.52C377.553 422.107 376.806 422.4 375.846 422.4C374.886 422.4 374.113 422.107 373.526 421.52C372.94 420.933 372.646 420.16 372.646 419.2V415.36C371.633 417.653 370.086 419.44 368.006 420.72C365.926 421.947 363.526 422.56 360.806 422.56C358.3 422.56 355.98 422.053 353.846 421.04C351.766 420.027 350.113 418.613 348.886 416.8C347.66 414.987 347.046 412.987 347.046 410.8C347.046 407.867 347.793 405.6 349.286 404C350.78 402.347 353.233 401.173 356.646 400.48C360.06 399.733 364.806 399.36 370.886 399.36H372.646V396.72C372.646 393.52 371.98 391.173 370.646 389.68C369.366 388.187 367.26 387.44 364.326 387.44C360.7 387.44 357.02 388.427 353.286 390.4C351.846 391.307 350.833 391.76 350.246 391.76C349.606 391.76 349.073 391.52 348.646 391.04C348.22 390.56 348.006 389.947 348.006 389.2C348.006 388.453 348.22 387.813 348.646 387.28C349.126 386.693 349.873 386.107 350.886 385.52C352.753 384.453 354.86 383.627 357.206 383.04C359.606 382.4 361.98 382.08 364.326 382.08ZM361.686 417.44C364.886 417.44 367.5 416.373 369.526 414.24C371.606 412.053 372.646 409.253 372.646 405.84V403.52H371.206C366.513 403.52 362.94 403.733 360.486 404.16C358.033 404.533 356.273 405.2 355.206 406.16C354.193 407.067 353.686 408.427 353.686 410.24C353.686 412.32 354.433 414.053 355.926 415.44C357.473 416.773 359.393 417.44 361.686 417.44Z" fill="black"/>
<path d="M149.04 336C147.493 336 146.267 335.573 145.36 334.72C144.507 333.867 144.08 332.667 144.08 331.12V284.48C144.08 282.933 144.507 281.733 145.36 280.88C146.267 280.027 147.493 279.6 149.04 279.6H164.88C174.107 279.6 181.253 282.08 186.32 287.04C191.44 291.947 194 298.853 194 307.76C194 316.72 191.44 323.68 186.32 328.64C181.253 333.547 174.107 336 164.88 336H149.04ZM164.24 327.6C177.2 327.6 183.68 320.987 183.68 307.76C183.68 294.587 177.2 288 164.24 288H154.4V327.6H164.24ZM221.353 336.64C217.353 336.64 213.833 335.813 210.793 334.16C207.806 332.507 205.486 330.133 203.833 327.04C202.179 323.947 201.353 320.347 201.353 316.24C201.353 312.133 202.179 308.56 203.833 305.52C205.486 302.427 207.806 300.053 210.793 298.4C213.833 296.747 217.353 295.92 221.353 295.92C225.353 295.92 228.846 296.747 231.833 298.4C234.873 300.053 237.193 302.427 238.793 305.52C240.446 308.56 241.273 312.133 241.273 316.24C241.273 320.347 240.446 323.947 238.793 327.04C237.193 330.133 234.873 332.507 231.833 334.16C228.846 335.813 225.353 336.64 221.353 336.64ZM221.273 328.88C224.526 328.88 227.006 327.813 228.713 325.68C230.419 323.547 231.273 320.4 231.273 316.24C231.273 312.133 230.419 309.013 228.713 306.88C227.006 304.693 224.553 303.6 221.353 303.6C218.153 303.6 215.673 304.693 213.913 306.88C212.206 309.013 211.353 312.133 211.353 316.24C211.353 320.4 212.206 323.547 213.913 325.68C215.619 327.813 218.073 328.88 221.273 328.88ZM272.008 295.92C275.421 295.92 278.435 296.747 281.048 298.4C283.661 300.053 285.688 302.4 287.128 305.44C288.621 308.48 289.368 312.027 289.368 316.08C289.368 320.133 288.621 323.733 287.128 326.88C285.688 329.973 283.635 332.373 280.968 334.08C278.355 335.787 275.368 336.64 272.008 336.64C269.181 336.64 266.648 336.027 264.408 334.8C262.221 333.573 260.541 331.867 259.368 329.68V331.68C259.368 333.12 258.915 334.267 258.008 335.12C257.101 335.973 255.901 336.4 254.408 336.4C252.915 336.4 251.715 335.973 250.808 335.12C249.955 334.267 249.528 333.12 249.528 331.68V283.84C249.528 282.453 249.981 281.333 250.888 280.48C251.848 279.627 253.075 279.2 254.568 279.2C256.061 279.2 257.261 279.6 258.168 280.4C259.075 281.2 259.528 282.293 259.528 283.68V302.56C260.701 300.427 262.381 298.8 264.568 297.68C266.755 296.507 269.235 295.92 272.008 295.92ZM269.368 328.88C272.515 328.88 274.968 327.76 276.728 325.52C278.488 323.28 279.368 320.133 279.368 316.08C279.368 312.08 278.488 309.013 276.728 306.88C275.021 304.747 272.568 303.68 269.368 303.68C266.168 303.68 263.688 304.773 261.928 306.96C260.221 309.093 259.368 312.187 259.368 316.24C259.368 320.293 260.221 323.413 261.928 325.6C263.688 327.787 266.168 328.88 269.368 328.88ZM319.415 296.08C320.802 295.973 321.895 296.267 322.695 296.96C323.495 297.653 323.895 298.693 323.895 300.08C323.895 301.52 323.548 302.587 322.855 303.28C322.162 303.973 320.908 304.427 319.095 304.64L316.695 304.88C313.548 305.2 311.228 306.267 309.735 308.08C308.295 309.893 307.575 312.16 307.575 314.88V331.68C307.575 333.227 307.095 334.427 306.135 335.28C305.175 336.08 303.975 336.48 302.535 336.48C301.095 336.48 299.895 336.08 298.935 335.28C298.028 334.427 297.575 333.227 297.575 331.68V300.72C297.575 299.227 298.028 298.08 298.935 297.28C299.895 296.48 301.068 296.08 302.455 296.08C303.842 296.08 304.962 296.48 305.815 297.28C306.668 298.027 307.095 299.12 307.095 300.56V303.76C308.108 301.413 309.602 299.6 311.575 298.32C313.602 297.04 315.842 296.32 318.295 296.16L319.415 296.08ZM345.004 295.92C350.444 295.92 354.47 297.28 357.084 300C359.75 302.667 361.084 306.747 361.084 312.24V331.76C361.084 333.2 360.657 334.347 359.804 335.2C358.95 336 357.777 336.4 356.284 336.4C354.897 336.4 353.75 335.973 352.844 335.12C351.99 334.267 351.564 333.147 351.564 331.76V330C350.657 332.08 349.217 333.707 347.244 334.88C345.324 336.053 343.084 336.64 340.524 336.64C337.91 336.64 335.537 336.107 333.404 335.04C331.27 333.973 329.59 332.507 328.364 330.64C327.137 328.773 326.524 326.693 326.524 324.4C326.524 321.52 327.244 319.253 328.684 317.6C330.177 315.947 332.577 314.747 335.884 314C339.19 313.253 343.75 312.88 349.564 312.88H351.564V311.04C351.564 308.427 351.004 306.533 349.884 305.36C348.764 304.133 346.95 303.52 344.444 303.52C342.897 303.52 341.324 303.76 339.724 304.24C338.124 304.667 336.23 305.307 334.044 306.16C332.657 306.853 331.644 307.2 331.004 307.2C330.044 307.2 329.244 306.853 328.604 306.16C328.017 305.467 327.724 304.56 327.724 303.44C327.724 302.533 327.937 301.76 328.364 301.12C328.844 300.427 329.617 299.787 330.684 299.2C332.55 298.187 334.764 297.387 337.324 296.8C339.937 296.213 342.497 295.92 345.004 295.92ZM342.524 329.44C345.19 329.44 347.35 328.56 349.004 326.8C350.71 324.987 351.564 322.667 351.564 319.84V318.16H350.124C346.55 318.16 343.777 318.32 341.804 318.64C339.83 318.96 338.417 319.52 337.564 320.32C336.71 321.12 336.284 322.213 336.284 323.6C336.284 325.307 336.87 326.72 338.044 327.84C339.27 328.907 340.764 329.44 342.524 329.44ZM347.004 291.52C346.417 291.947 345.83 292.16 345.244 292.16C344.497 292.16 343.857 291.92 343.324 291.44C342.844 290.907 342.604 290.293 342.604 289.6C342.604 289.013 342.817 288.427 343.244 287.84L351.004 277.52C352.23 275.92 353.644 275.12 355.244 275.12C356.417 275.12 357.404 275.547 358.204 276.4C359.057 277.2 359.484 278.16 359.484 279.28C359.484 280.773 358.764 282.053 357.324 283.12L347.004 291.52Z" fill="black"/>
<path d="M245.517 116.697L173.503 177.715V243.571C173.503 245.276 174.161 246.911 175.333 248.117C176.505 249.323 178.095 250 179.752 250L223.523 249.883C225.175 249.875 226.756 249.194 227.921 247.989C229.087 246.784 229.741 245.154 229.741 243.454V204.995C229.741 203.29 230.399 201.655 231.571 200.449C232.743 199.243 234.333 198.566 235.99 198.566H260.988C262.646 198.566 264.235 199.243 265.407 200.449C266.579 201.655 267.238 203.29 267.238 204.995V243.426C267.235 244.272 267.395 245.11 267.708 245.893C268.021 246.675 268.481 247.386 269.061 247.985C269.642 248.584 270.332 249.06 271.091 249.384C271.851 249.708 272.665 249.875 273.487 249.875L317.242 250C318.899 250 320.489 249.323 321.661 248.117C322.833 246.911 323.491 245.276 323.491 243.571V177.671L251.493 116.697C250.647 115.995 249.592 115.612 248.505 115.612C247.418 115.612 246.363 115.995 245.517 116.697V116.697ZM359.27 158.17L326.616 130.48V74.822C326.616 73.5431 326.122 72.3166 325.243 71.4123C324.364 70.508 323.172 70 321.929 70H300.056C298.813 70 297.62 70.508 296.741 71.4123C295.862 72.3166 295.369 73.5431 295.369 74.822V103.999L260.399 74.4C257.043 71.559 252.832 70.0057 248.485 70.0057C244.139 70.0057 239.928 71.559 236.572 74.4L137.701 158.17C137.226 158.573 136.834 159.069 136.545 159.629C136.257 160.189 136.079 160.801 136.021 161.432C135.963 162.063 136.026 162.699 136.207 163.304C136.388 163.91 136.684 164.473 137.076 164.961L147.036 177.417C147.428 177.907 147.909 178.313 148.453 178.611C148.997 178.909 149.593 179.093 150.207 179.154C150.82 179.215 151.439 179.151 152.029 178.965C152.618 178.78 153.166 178.476 153.641 178.072L245.517 100.222C246.363 99.5198 247.418 99.137 248.505 99.137C249.592 99.137 250.647 99.5198 251.493 100.222L343.373 178.072C343.847 178.476 344.394 178.78 344.983 178.966C345.571 179.152 346.19 179.218 346.803 179.158C347.416 179.098 348.011 178.915 348.555 178.618C349.1 178.322 349.581 177.918 349.974 177.429L359.934 164.973C360.326 164.482 360.62 163.916 360.799 163.308C360.978 162.7 361.038 162.061 360.977 161.429C360.915 160.797 360.732 160.184 360.439 159.624C360.147 159.065 359.749 158.57 359.27 158.17V158.17Z" fill="black"/>
</svg>
