<svg width="200" height="200" viewBox="0 0 200 200" fill="none" xmlns="http://www.w3.org/2000/svg">
<path d="M121.882 63.5921L155.634 29.8151L151.648 25.8581C146.508 20.714 137.508 20.714 132.352 25.8581L117.944 40.3091C115.366 42.8891 113.943 46.3237 113.943 49.9642C113.943 53.6046 115.366 57.0393 117.928 59.6035L121.882 63.5921Z" fill="#20232A"/>
<path d="M60.7056 116.885C55.5653 111.741 46.566 111.741 41.4099 116.885L26.9857 131.32C24.4234 133.9 23 137.335 23 140.975C23 144.616 24.4234 148.051 27.0173 150.646L30.9871 154.572L64.6596 120.874L60.7056 116.885Z" fill="#20232A"/>
<path d="M167.939 42.161L164.712 38.9479L130.992 72.6933L136.907 78.5971C137.777 79.4677 138.236 80.6073 138.236 81.826C138.236 83.0448 137.762 84.1844 136.907 85.055L86.1062 135.879C84.3822 137.588 81.393 137.604 79.669 135.879L73.7696 129.959L40.0972 163.72L43.3237 166.949C45.6803 169.308 54.648 177 71.1125 177C85.8057 177 109.815 170.526 140.688 139.646C202.275 77.9798 169.394 43.633 167.939 42.161Z" fill="#20232A"/>
</svg>
