<svg width="200" height="200" viewBox="0 0 200 200" fill="none" xmlns="http://www.w3.org/2000/svg">
<circle cx="100" cy="100" r="100" fill="#CED100"/>
<path d="M94.6653 22.6801C93.9846 23.1973 93.8227 23.6164 93.8227 24.684V26.041L91.1316 26.7844C85.589 28.3027 79.4625 32.0195 75.5718 36.2187C70.3847 41.8081 66.916 49.1105 66.3971 55.6061L66.1702 58.0292L63.9662 60.1296C61.2751 62.6491 61.1132 63.4573 62.8 65.6541C65.718 69.499 73.1409 72.4393 83.4485 73.8611C88.5706 74.5713 104.681 74.8623 110.744 74.3783C123.289 73.3123 132.268 70.5651 136.256 66.592C139.044 63.8131 138.914 62.5858 135.672 60.1296L133.436 58.4167L133.241 56.2198C132.302 46.882 127.31 38.0613 119.627 32.2773C116.645 30.0156 111.555 27.4961 108.346 26.6547L106.142 26.0727V24.8121C106.142 23.9391 105.915 23.3586 105.332 22.8082C104.586 22.0332 104.392 22 100.048 22C95.9617 22.0016 95.4428 22.0664 94.6653 22.6801Z" fill="#20232A"/>
<path d="M67.9538 76.5103C65.4578 80.0974 66.0084 88.4974 69.1851 94.7021C70.2228 96.706 72.33 99.7759 73.7565 101.326C74.5023 102.134 75.2481 103.426 75.6686 104.718C76.0574 105.881 77.03 108.046 77.8075 109.564C81.4381 116.576 86.722 121.261 93.6593 123.652C95.8966 124.427 96.7709 124.557 99.981 124.557C103.319 124.557 104 124.459 106.561 123.555C113.368 121.164 118.619 116.448 122.153 109.564C122.93 108.046 123.871 105.881 124.26 104.75C124.746 103.361 125.46 102.132 126.432 101.066C128.539 98.7399 130.905 94.7005 132.04 91.5989C133.79 86.7845 134.017 80.5482 132.559 77.4783C131.651 75.5392 131.392 75.4427 128.735 76.2177C119.043 79.0615 102.996 80.4501 90.9047 79.5454C84.1943 79.0283 76.0573 77.7677 72.1031 76.6052C70.3196 76.0564 68.8296 75.6357 68.7313 75.6357C68.6345 75.6389 68.3108 76.0264 67.9538 76.5103Z" fill="#20232A"/>
<path d="M71.7144 116.867L67.2413 118.676V147.046V175.447L68.9597 175.641C79.042 176.772 97.3564 177.289 110.971 176.837C120.988 176.481 126.562 176.127 131.037 175.641L132.722 175.447V147.046V118.676L128.281 116.898L123.808 115.089L122.835 116.285C119.205 120.777 115.541 123.782 111.164 125.882C107.469 127.66 105.168 128.273 101.277 128.531C95.8633 128.854 90.5794 127.336 85.4906 124.039C83.1248 122.488 79.169 118.837 77.1268 116.285L76.1541 115.089L71.7144 116.867Z" fill="#20232A"/>
<path d="M52.1353 125.333C44.0968 129.469 39.1366 134.575 35.3109 142.587C33.5607 146.271 31.8105 151.473 30.9029 155.512C30.0603 159.357 29.7033 166.207 30.2872 166.919C31.7454 168.663 44.3237 172.25 55.02 173.963L55.8959 174.093V148.793C55.8959 134.867 55.8642 123.461 55.8309 123.461C55.7658 123.491 54.1124 124.299 52.1353 125.333Z" fill="#20232A"/>
<path d="M144.068 148.79V174.09L148.217 173.378C155.348 172.086 160.308 170.794 165.786 168.79C170 167.238 170 167.238 170 163.879C170 155.123 165.884 142.845 160.567 135.735C157.228 131.244 153.079 127.949 147.082 124.944L144.068 123.457V148.79Z" fill="#20232A"/>
</svg>
